# xmcd
#
# Track frame offsets:
#	150
#	15527
#	39905
#	55605
#	70490
#	82112
#	97192
#	112122
#	127275
#	145427
#	159980
#	173997
#	192757
#	208285
#	224372
#	240797
#	257390
#	274045
#	286282
#	301670
#
# Disc length: 4264 seconds
#
# Revision: 1
# Processed by: cddbd v1.5.2PL0 Copyright (c) Steve Scherf et al.
# Submitted via: EasyCDDAExtractor 11.1.0.1
#
DISCID=2410a614
DTITLE=Various Artist - Cgc-547
DYEAR=1900
DGENRE=Country
TTITLE0=Bellamy Brothers - I Could Be Persuaded
TTITLE1=David Allan Coe - You Never Even Called Me By My Name
TTITLE2=Lacy J Dalton - Black Coffee
TTITLE3=Rodney Crowell - She's Crazy For Leavin'
TTITLE4=Steve Earle - Guitaqr Town
TTITLE5=Highway 101 - Somewhere Tonight
TTITLE6=Anne Murray - Could I Have This Dance
TTITLE7=Juice Newton - Queen Of Hearts
TTITLE8=Eddie Rabbit and Crystal Gayle - You And I
TTITLE9=Collin Raye - All I Can Be (Is A Sweet Memory)
TTITLE10=Eddy Raven - Operator, Operator
TTITLE11=Kenny Rogers and Dolly Parton - Islands In The Stream
TTITLE12=Baillie and The Boys - I Can't Turn The Tide
TTITLE13=Baillie and The Boys - Oh Heart
TTITLE14=Bellamy Brothers - Crazy From The Heart
TTITLE15=Bellamy Brothers - Feelin' The Feelin'
TTITLE16=Earl Thomas Conley - Once In A Blue Moon
TTITLE17=Rob Crosby - Love Will Bring Her Around
TTITLE18=Rodney Crowell and Rosanne Cash - It's Such A Small World
TTITLE19=Desert Rose Band - Start All Over Again
EXTD=YEAR: 1900
EXTT0=
EXTT1=
EXTT2=
EXTT3=
EXTT4=
EXTT5=
EXTT6=
EXTT7=
EXTT8=
EXTT9=
EXTT10=
EXTT11=
EXTT12=
EXTT13=
EXTT14=
EXTT15=
EXTT16=
EXTT17=
EXTT18=
EXTT19=
PLAYORDER=
